PathFileType	4	(X/Y/Z)	C:/Users/opensim2020/Desktop/walking_exp_matlab/subject01_walking04_straight_01.trc																																																																																																																															
DataRate	CameraRate	NumFrames	NumMarkers	Units	OrigDataRate	OrigDataStartFrame	OrigNumFrames																																																																																																																											
100	100	8	43	mm	100	920	216																																																																																																																											
Frame#	Time	LFHD			RFHD			LBHD			RBHD			C7			T10			CLAV			STRN			RBAK			LSHO			LUPA			LELB			LFRM			LWRA			LWRB			LFIN			RSHO			RUPA			RELB			RFRM			RWRA			RWRB			RFIN			LASI			RASI			LPSI			RPSI			LTHI			LKNE			LTIB			LANK			LHEE			LTOE			RTHI			RKNE			RTIB			RANK			RHEE			RTOE			*39			*40			*41			*42		
		X1	Y1	Z1	X2	Y2	Z2	X3	Y3	Z3	X4	Y4	Z4	X5	Y5	Z5	X6	Y6	Z6	X7	Y7	Z7	X8	Y8	Z8	X9	Y9	Z9	X10	Y10	Z10	X11	Y11	Z11	X12	Y12	Z12	X13	Y13	Z13	X14	Y14	Z14	X15	Y15	Z15	X16	Y16	Z16	X17	Y17	Z17	X18	Y18	Z18	X19	Y19	Z19	X20	Y20	Z20	X21	Y21	Z21	X22	Y22	Z22	X23	Y23	Z23	X24	Y24	Z24	X25	Y25	Z25	X26	Y26	Z26	X27	Y27	Z27	X28	Y28	Z28	X29	Y29	Z29	X30	Y30	Z30	X31	Y31	Z31	X32	Y32	Z32	X33	Y33	Z33	X34	Y34	Z34	X35	Y35	Z35	X36	Y36	Z36	X37	Y37	Z37	X38	Y38	Z38	X39	Y39	Z39	X40	Y40	Z40	X41	Y41	Z41	X42	Y42	Z42	X43	Y43	Z43
																																																																																																																																		
109	1.08	26.13858	1667.39124	-1103.74719	38.53896	1677.64197	-990.2829	-84.75258	1609.55579	-1095.03308	-74.98243	1618.9823	-974.55566	-109.32777	1425.80103	-1044.07776	-140.64119	1132.63452	-1025.95581	34.5421	1358.81519	-1045.2395	80.12494	1204.79529	-1044.99951	-159.86168	1234.04675	-956.68024	-33.02071	1378.75037	-1206.06482	-71.49728	1189.97058	-1279.61182	-92.98015	1043.40125	-1272.90576	-70.51778	932.27289	-1296.00427	-11.29898	805.76508	-1274.48523	-65.41933	809.91315	-1301.49878	-31.25538	730.7041	-1303.83801	-24.26599	1391.45227	-892.12848	-81.9191	1196.83008	-784.03101	-80.66242	1070.41602	-775.57214	-37.46799	956.95374	-742.54248	60.30632	854.83582	-759.40576	16.63857	848.61041	-721.67798	67.01491	780.39355	-719.89331	37.09263	929.45898	-1131.87109	28.29241	922.2038	-915.61517	-151.18536	942.59131	-1088.45239	-154.70241	945.12628	-943.15845	66.94343	606.92047	-1180.95374	82.89857	474.81924	-1157.61548	50.97016	286.35239	-1165.98364	39.10263	70.09492	-1111.27295	-7.3431	40.91384	-1060.4729	187.98825	36.62319	-1109.91211	-51.72287	589.60071	-853.63507	-72.77962	431.82013	-869.45892	-221.68733	334.44397	-879.3089	-364.45123	186.76195	-931.99554	-409.63275	201.54999	-991.29907	-327.54382	44.91739	-941.50085	22.50163	1709.33276	-1014.13708	1973.12195	1023.35083	-3101.86499	2012.50415	1021.89111	-3140.69995	NaN	NaN	NaN
110	1.09	36.69517	1667.95911	-1104.88037	48.91643	1678.23267	-991.42444	-74.4446	1610.55762	-1096.42395	-64.75421	1619.92615	-975.85608	-99.75206	1426.58752	-1045.4281	-130.90645	1133.29736	-1027.57239	44.2694	1359.60193	-1046.32947	89.78365	1205.59497	-1046.09509	-150.28088	1234.84778	-958.07343	-22.84926	1379.83496	-1207.15784	-59.65655	1191.09668	-1281.53015	-79.62862	1044.1178	-1275.0564	-55.34794	933.30206	-1298.19263	5.26754	807.34192	-1276.03174	-48.3522	811.05231	-1303.85486	-12.9437	732.3952	-1306.15039	-14.48129	1392.30103	-893.41943	-72.41358	1197.87195	-784.90796	-72.25043	1071.19165	-777.57916	-30.84791	957.23596	-744.1839	65.92078	853.76807	-760.35809	21.46984	848.01923	-722.96246	71.23473	778.97327	-721.31848	46.67422	929.75995	-1133.21997	38.35291	923.47461	-916.46362	-141.51331	943.13525	-1089.50964	-145.13705	945.24078	-944.07831	71.991	605.84631	-1181.94922	87.63389	473.80963	-1158.81689	52.66493	286.01563	-1165.62341	39.38438	70.03632	-1111.06787	-7.40567	41.09098	-1060.46509	188.25761	36.59765	-1110.1156	-34.80204	589.20508	-853.84985	-52.40179	431.28317	-869.5528	-202.55099	337.10318	-878.04736	-348.46811	193.87865	-932.1283	-393.63586	210.26135	-991.39728	-316.793	50.28338	-940.11542	33.02561	1709.92651	-1015.36005	1972.85645	1023.83362	-3102.02881	2012.53711	1022.0329	-3140.53906	NaN	NaN	NaN
111	1.1	47.22583	1668.65442	-1106.01343	59.3782	1678.91772	-992.40918	-64.11736	1611.61597	-1097.65442	-54.58482	1620.92468	-977.06409	-89.94753	1427.35962	-1046.64648	-121.44219	1134.08167	-1029.16772	53.96728	1360.35535	-1047.297	99.37529	1206.35474	-1046.99963	-140.82658	1235.7334	-959.60651	-12.59244	1380.88916	-1208.17847	-47.71302	1192.24573	-1283.40576	-66.35936	1044.79785	-1277.19189	-40.13313	934.31891	-1300.50745	22.44676	809.29028	-1278.16785	-30.99955	812.24963	-1306.29358	5.69335	734.17053	-1308.43335	-4.81049	1392.92859	-894.51666	-62.78703	1198.71301	-785.7597	-63.87357	1071.83862	-779.33051	-24.13838	957.29712	-745.69745	71.3204	852.46857	-761.58734	26.60853	847.44519	-724.2334	75.342	777.50177	-722.83423	56.08434	930.00543	-1134.40918	47.9838	924.69397	-917.41736	-132.0428	943.63928	-1090.65649	-135.82964	945.20502	-945.17981	77.06316	604.9104	-1183.06555	92.0622	472.83676	-1159.87866	55.01132	285.66934	-1165.65259	39.67139	70.13605	-1110.82422	-7.21353	41.28066	-1060.32422	188.5309	36.42017	-1110.0979	-17.96673	589.40259	-854.31403	-31.82586	431.41779	-869.70142	-183.16779	339.91769	-877.3053	-332.12915	200.70935	-932.63934	-376.7045	217.19171	-992.25531	-303.07715	56.08606	-937.31854	43.56483	1710.58862	-1016.39673	1973.17249	1023.24927	-3101.98901	2012.42798	1021.8703	-3140.79175	NaN	NaN	NaN
112	1.11	57.62012	1669.36401	-1106.83508	69.7407	1679.48413	-993.41174	-53.88659	1612.69189	-1098.58423	-44.37986	1622.0177	-978.03314	-80.21423	1428.32324	-1047.79248	-112.07852	1135.02222	-1030.72583	63.58424	1361.08459	-1048.11987	108.80975	1207.02063	-1047.8512	-131.59604	1236.57202	-961.29675	-2.28465	1381.87573	-1209.03613	-35.71411	1193.40857	-1285.31091	-53.19372	1045.44458	-1279.3927	-24.93516	935.30792	-1302.84058	39.82518	811.44623	-1280.41895	-13.50269	813.45782	-1308.75818	24.62545	736.09558	-1310.86499	4.65174	1393.42932	-895.43634	-53.41776	1199.30859	-786.65619	-55.32392	1072.37927	-780.82031	-17.51643	957.33954	-747.11749	76.59792	851.1842	-762.75641	31.92619	846.77057	-725.50153	79.5636	776.18256	-724.15454	65.39319	930.13794	-1135.34778	57.30266	925.83258	-918.32166	-122.74618	944.06512	-1091.71973	-126.72131	945.05945	-946.23798	82.18671	604.28687	-1183.79138	96.44232	471.99991	-1160.66089	58.03435	285.36115	-1165.7561	40.1552	70.27996	-1110.54053	-6.96403	41.42991	-1060.00269	188.85469	36.21786	-1109.92041	-1.66838	590.23706	-854.87396	-11.51239	432.19644	-869.84668	-163.54814	342.42581	-877.40778	-315.25845	206.78258	-933.30188	-359.30011	222.35431	-993.87549	-287.14835	61.70401	-933.93158	54.00475	1711.35059	-1017.14063	1973.10681	1023.80341	-3101.96484	2012.48853	1021.91089	-3140.61133	NaN	NaN	NaN
113	1.12	68.04475	1670.05396	-1107.76538	80.11629	1680.17737	-994.10663	-43.82062	1613.88452	-1099.68469	-34.23986	1622.98657	-978.97577	-70.36736	1429.31567	-1048.8335	-102.96983	1136.02112	-1032.31421	73.16467	1361.76379	-1048.77588	118.23138	1207.65454	-1048.55981	-122.34856	1237.38855	-963.0127	8.02374	1382.79504	-1209.87024	-23.64596	1194.55444	-1286.99963	-40.05352	1046.12488	-1281.55591	-9.75516	936.38495	-1305.17883	57.77478	814.18646	-1283.03491	4.12989	814.84528	-1311.33569	43.93625	738.29675	-1313.37146	13.98003	1393.98645	-896.19788	-44.15313	1199.78552	-787.68298	-46.76464	1072.90967	-782.12024	-10.67521	957.42493	-748.39453	81.87022	849.99567	-763.91034	37.08901	846.19202	-726.56726	83.68952	774.82471	-725.50659	74.59406	930.31799	-1136.23254	66.30689	927.03241	-919.45801	-113.55944	944.40167	-1092.65149	-118.11905	944.83087	-947.26031	87.2801	603.36115	-1184.28552	100.95499	471.38123	-1161.0874	61.53857	285.10715	-1165.90076	40.67799	70.36499	-1110.38098	-6.7791	41.71298	-1059.95142	189.15532	36.07415	-1109.74622	14.67393	591.63538	-855.19641	8.80257	433.75006	-870.01917	-144.08479	345.32141	-877.88324	-297.06635	211.99593	-933.98077	-340.89227	226.54167	-995.48267	-269.06299	66.91875	-930.47119	64.53412	1711.74829	-1018.26025	1973.1001	1023.44098	-3101.84766	2012.50439	1021.9834	-3140.65479	NaN	NaN	NaN
114	1.13	78.33976	1670.65771	-1108.46729	90.43452	1680.73889	-994.92816	-33.64266	1614.88086	-1100.41443	-24.18086	1623.9519	-979.82324	-60.59218	1430.25989	-1049.8302	-93.76122	1136.9812	-1034.01099	82.66428	1362.37585	-1049.34583	127.48598	1208.13635	-1049.22546	-113.25616	1238.26428	-964.72565	18.3967	1383.70459	-1210.61377	-11.5204	1195.729	-1288.57251	-27.11252	1046.68005	-1283.69055	5.41377	937.55823	-1307.5199	75.06377	816.39294	-1285.23315	21.84252	816.34131	-1313.89233	63.28125	740.66956	-1315.94836	23.25952	1394.32361	-897.12463	-35.11261	1200.18762	-788.78278	-38.3018	1073.4856	-783.30115	-3.85581	957.65338	-749.5448	87.2775	849.0061	-764.79083	42.41696	845.74457	-727.49884	87.95763	773.6651	-726.60376	83.7498	930.54889	-1137.10901	75.18282	928.01514	-920.45782	-104.51207	944.71252	-1093.51172	-108.3717	944.63245	-948.2608	93.00029	602.86737	-1184.84131	105.76942	470.90265	-1161.15417	65.25166	284.8562	-1165.74475	41.2821	70.56602	-1110.15845	-6.68918	42.0159	-1059.823	189.42336	36.1338	-1109.5697	30.65967	593.26508	-855.41467	28.97539	435.71973	-870.22211	-123.70912	347.97235	-878.37964	-277.31564	215.92789	-934.63342	-321.67902	229.70296	-996.95209	-250.55827	71.17179	-927.47583	74.90248	1712.81104	-1018.82043	1973.05017	1023.78973	-3101.97607	2012.56702	1021.97961	-3140.58447	NaN	NaN	NaN
115	1.14	88.68814	1671.28772	-1109.02563	100.71375	1681.33997	-995.49487	-23.42869	1615.74658	-1100.98962	-14.06301	1624.94592	-980.40594	-50.97501	1431.19116	-1050.86633	-84.79935	1138.00195	-1035.57764	92.18428	1362.91077	-1049.85742	136.74551	1208.58289	-1049.82642	-104.32531	1239.11523	-966.4585	28.72075	1384.57349	-1211.27161	0.46714	1196.85303	-1290.01782	-14.11266	1047.42664	-1285.8739	20.49518	938.81702	-1309.89307	92.76128	819.19501	-1287.7229	39.63588	818.02667	-1316.34949	82.68464	743.3714	-1318.63708	32.34671	1394.81116	-897.755	-26.4192	1200.56592	-789.97516	-29.93524	1074.01343	-784.37207	3.03587	957.91254	-750.65692	92.51434	848.00458	-765.76178	48.1399	845.5415	-728.50287	92.26894	772.58044	-727.62219	92.92535	930.85577	-1138.3551	84.97752	929.69678	-920.67615	-95.61306	944.97699	-1094.20972	-99.35426	944.88361	-949.08008	98.36804	602.25787	-1184.91748	110.66969	470.37366	-1160.92542	69.0116	284.6265	-1165.14539	41.72018	70.69731	-1109.96277	-6.49573	42.32127	-1059.64636	189.62022	36.09164	-1109.34277	46.36109	595.21375	-855.6485	48.97308	438.02899	-870.41937	-103.40261	350.37418	-878.68536	-258.12646	219.38846	-935.16711	-302.15329	231.52124	-998.07758	-230.4847	74.88037	-925.24377	85.38367	1713.08667	-1019.64282	1973.12109	1023.2135	-3101.94434	2012.57153	1021.9624	-3140.55542	NaN	NaN	NaN
116	1.15	98.99155	1671.90527	-1109.57239	110.99277	1681.76331	-996.08795	-13.29996	1616.70593	-1101.5166	-3.90092	1625.86597	-980.93213	-41.58076	1432.15283	-1051.98608	-75.82669	1138.90479	-1037.19495	101.58167	1363.40869	-1050.27002	145.72511	1209.01965	-1050.31555	-95.40488	1239.91785	-968.17834	39.03417	1385.41833	-1211.91418	12.37025	1198.01782	-1291.3075	-1.29554	1048.09802	-1287.97961	35.56792	940.17896	-1312.15161	110.49736	822.31818	-1290.30896	57.43304	819.85883	-1318.88281	102.23048	746.29938	-1321.34082	41.39384	1395.35022	-898.51434	-18.06365	1200.90002	-791.22321	-21.65973	1074.56384	-785.50781	9.91429	958.42603	-751.64496	97.92244	847.23126	-766.55817	53.20696	845.33057	-729.20398	96.58657	771.70667	-728.51294	101.94849	931.2663	-1139.23596	94.06042	930.8808	-921.54425	-86.6628	945.21271	-1094.81433	-90.25073	945.23425	-949.82251	104.45113	601.9101	-1184.81177	115.47417	469.77994	-1160.60095	72.2801	284.33426	-1164.68652	42.07392	70.7887	-1109.79504	-6.5581	42.76416	-1059.69031	189.87144	36.03394	-1109.1178	62.03491	597.19025	-855.84442	69.02026	440.28885	-870.6463	-83.06097	352.49948	-879.20905	-237.70316	221.37535	-935.68182	-282.15317	232.33981	-999.02472	-207.94067	77.89626	-922.61523	95.7324	1713.65234	-1020.10828	1973.11877	1023.43304	-3101.82861	2012.50293	1021.98993	-3140.57178	NaN	NaN	NaN
